<svg xmlns="http://www.w3.org/2000/svg" viewBox="0 0 256 256" role="img" aria-labelledby="title desc">
  <title id="title">MockLab999 mark</title>
  <desc id="desc">Rose-gold monogram on a navy square.</desc>
  <defs>
    <linearGradient id="bg" x1="20" y1="14" x2="236" y2="242" gradientUnits="userSpaceOnUse">
      <stop stop-color="#1d2b43" />
      <stop offset="1" stop-color="#132138" />
    </linearGradient>
    <linearGradient id="metal" x1="58" y1="40" x2="176" y2="192" gradientUnits="userSpaceOnUse">
      <stop stop-color="#f0cdb0" />
      <stop offset="0.45" stop-color="#d2a280" />
      <stop offset="1" stop-color="#b98361" />
    </linearGradient>
  </defs>

  <rect width="256" height="256" rx="56" fill="url(#bg)" />
  <g transform="translate(26 24) scale(0.62)" fill="none" stroke="url(#metal)" stroke-width="14" stroke-linecap="round" stroke-linejoin="round">
    <path d="M64 42c-22 0-39 17-39 39s17 39 39 39" />
    <path d="M81 42v104l-34 40" />
    <path d="M111 42c-21 0-38 17-38 38 0 22 17 39 38 39" />
    <path d="M106 42c0-24 20-44 44-44 24 0 44 20 44 44" />
    <path d="M194 42c0-24 20-44 44-44s44 20 44 44-20 44-44 44" />
    <path d="M150 68 194 155 237 68" />
    <path d="M237 68v129" />
    <path d="M282 89c21 0 38 17 38 38s-17 38-38 38" />
    <path d="M282 89v108" />
    <path d="M320 127v70" />
  </g>
</svg>
